<svg width="191px" height="191px" viewBox="-1.6 -1.6 19.20 19.20" fill="none" xmlns="http://www.w3.org/2000/svg" stroke="#a24444" stroke-width="0.00016" transform="matrix(-1, 0, 0, 1, 0, 0)rotate(0)"><g id="SVGRepo_bgCarrier" stroke-width="0" transform="translate(1.12,1.12), scale(0.86)"><path transform="translate(-1.6, -1.6), scale(1.2)" fill="#7ed0ec" d="M9.166.33a2.25 2.25 0 00-2.332 0l-5.25 3.182A2.25 2.25 0 00.5 5.436v5.128a2.25 2.25 0 001.084 1.924l5.25 3.182a2.25 2.25 0 002.332 0l5.25-3.182a2.25 2.25 0 001.084-1.924V5.436a2.25 2.25 0 00-1.084-1.924L9.166.33z" strokewidth="0"></path></g><g id="SVGRepo_tracerCarrier" stroke-linecap="round" stroke-linejoin="round" stroke="#ffe4a8" stroke-width="0.288"></g><g id="SVGRepo_iconCarrier"> <path d="M1 0H4.52852L8 8.98501L11.4715 0H15V16H12V6.95617L9.27852 14H6.72148L4 6.95617V16H1V0Z" fill="#000000"></path> </g></svg>